<svg xmlns="http://www.w3.org/2000/svg" width="680" height="470" viewBox="0 0 680 470" font-family="Arial, Helvetica, sans-serif" role="img" aria-label="SAP and Databricks swim-lane architecture">
<defs><marker id="arrow" viewBox="0 0 10 10" refX="8" refY="5" markerWidth="6" markerHeight="6" orient="auto-start-reverse"><path d="M2 1L8 5L2 9" fill="none" stroke="#666" stroke-width="1.5" stroke-linecap="round" stroke-linejoin="round"/></marker></defs>
<rect width="680" height="470" fill="#ffffff"/>

<rect x="16" y="40" width="648" height="120" rx="12" fill="#E6F1FB" stroke="#185FA5" stroke-width="0.5"/>
<rect x="16" y="40" width="86" height="22" rx="6" fill="#B5D4F4" stroke="#185FA5" stroke-width="0.5"/>
<text x="59" y="55" text-anchor="middle" font-size="12" fill="#0C447C">SAP lane</text>

<rect x="16" y="200" width="648" height="180" rx="12" fill="#EEEDFE" stroke="#534AB7" stroke-width="0.5"/>
<rect x="16" y="200" width="130" height="22" rx="6" fill="#CECBF6" stroke="#534AB7" stroke-width="0.5"/>
<text x="81" y="215" text-anchor="middle" font-size="12" fill="#3C3489">Databricks lane</text>

<rect x="40" y="86" width="150" height="56" rx="8" fill="#B5D4F4" stroke="#185FA5" stroke-width="0.5"/>
<text x="115" y="108" text-anchor="middle" font-size="14" font-weight="500" fill="#0C447C">S/4HANA finance</text>
<text x="115" y="125" text-anchor="middle" font-size="12" fill="#185FA5">treasury, AP, vendor</text>

<rect x="210" y="86" width="150" height="56" rx="8" fill="#B5D4F4" stroke="#185FA5" stroke-width="0.5"/>
<text x="285" y="108" text-anchor="middle" font-size="14" font-weight="500" fill="#0C447C">SAP BDC</text>
<text x="285" y="125" text-anchor="middle" font-size="12" fill="#185FA5">governed data products</text>

<rect x="490" y="86" width="150" height="56" rx="8" fill="#C0DD97" stroke="#3B6D11" stroke-width="0.5"/>
<text x="565" y="108" text-anchor="middle" font-size="14" font-weight="500" fill="#27500A">SAP Analytics</text>
<text x="565" y="125" text-anchor="middle" font-size="12" fill="#3B6D11">Joule (roadmap)</text>

<line x1="285" y1="142" x2="285" y2="252" stroke="#666" stroke-width="1.5" marker-end="url(#arrow)"/>
<rect x="240" y="168" width="90" height="20" rx="6" fill="#D3D1C7" stroke="#5F5E5A" stroke-width="0.5"/>
<text x="285" y="182" text-anchor="middle" font-size="11" fill="#2C2C2A">SAP BDC Connect</text>

<rect x="40" y="240" width="150" height="50" rx="8" fill="#FAC775" stroke="#854F0B" stroke-width="0.5"/>
<text x="115" y="258" text-anchor="middle" font-size="14" font-weight="500" fill="#633806">Medallion to gold</text>
<text x="115" y="276" text-anchor="middle" font-size="12" fill="#854F0B">guard starts here</text>

<rect x="210" y="240" width="150" height="50" rx="8" fill="#FAC775" stroke="#854F0B" stroke-width="0.5"/>
<text x="285" y="258" text-anchor="middle" font-size="14" font-weight="500" fill="#633806">Model + Job</text>
<text x="285" y="276" text-anchor="middle" font-size="12" fill="#854F0B">SHAP, scheduled</text>

<rect x="380" y="240" width="150" height="50" rx="8" fill="#FAC775" stroke="#854F0B" stroke-width="0.5"/>
<text x="455" y="258" text-anchor="middle" font-size="14" font-weight="500" fill="#633806">Governed tools</text>
<text x="455" y="276" text-anchor="middle" font-size="12" fill="#854F0B">UC functions</text>

<line x1="190" y1="265" x2="206" y2="265" stroke="#666" stroke-width="1.5" marker-end="url(#arrow)"/>
<line x1="360" y1="265" x2="376" y2="265" stroke="#666" stroke-width="1.5" marker-end="url(#arrow)"/>

<rect x="40" y="306" width="230" height="50" rx="8" fill="#CECBF6" stroke="#534AB7" stroke-width="0.5"/>
<text x="155" y="324" text-anchor="middle" font-size="14" font-weight="500" fill="#3C3489">Specialist agents</text>
<text x="155" y="342" text-anchor="middle" font-size="12" fill="#534AB7">cashflow, vendor performance</text>

<rect x="290" y="306" width="160" height="50" rx="8" fill="#CECBF6" stroke="#534AB7" stroke-width="0.5"/>
<text x="370" y="324" text-anchor="middle" font-size="14" font-weight="500" fill="#3C3489">Supervisor</text>
<text x="370" y="342" text-anchor="middle" font-size="12" fill="#534AB7">synthesis</text>

<rect x="470" y="306" width="170" height="50" rx="8" fill="#F5C4B3" stroke="#993C1D" stroke-width="0.5"/>
<text x="555" y="324" text-anchor="middle" font-size="14" font-weight="500" fill="#712B13">Eval harness</text>
<text x="555" y="342" text-anchor="middle" font-size="12" fill="#993C1D">weekly drift record</text>

<line x1="370" y1="290" x2="370" y2="302" stroke="#666" stroke-width="1.5" marker-end="url(#arrow)"/>
<line x1="270" y1="331" x2="286" y2="331" stroke="#666" stroke-width="1.5" marker-end="url(#arrow)"/>
<line x1="450" y1="331" x2="466" y2="331" stroke="#666" stroke-width="1.5" marker-end="url(#arrow)"/>

<path d="M530 265 L565 265 L565 144" fill="none" stroke="#639922" stroke-width="1.5" marker-end="url(#arrow)"/>
<text x="600" y="200" text-anchor="middle" font-size="12" fill="#3B6D11">results back</text>

<rect x="16" y="400" width="648" height="46" rx="10" fill="#E8E6DE" stroke="#5F5E5A" stroke-width="0.5"/>
<text x="40" y="418" font-size="14" font-weight="500" fill="#2C2C2A">Unity Catalog governance</text>
<text x="40" y="435" font-size="12" fill="#5F5E5A">access, lineage, audit across every table, tool, model, and agent</text>
</svg>
